<svg xmlns="http://www.w3.org/2000/svg" viewBox="0 0 512 512">
  <defs>
    <linearGradient id="meta-grad" x1="0%" y1="50%" x2="100%" y2="50%">
      <stop offset="0%" style="stop-color:#0668E1"/>
      <stop offset="100%" style="stop-color:#0080FB"/>
    </linearGradient>
  </defs>
  <path fill="url(#meta-grad)" d="M100.6 268.2c0 32 6.6 56.2 15.4 70.6 11.4 18.6 27.4 24.6 40.4 24.6 17 0 30.4-4.2 56.4-42.4 20.8-30.6 45.2-73.8 61.6-100.6l27.6-45.2c19.4-31.6 41.8-66.8 68.4-90.2 21.6-19 45.2-31.4 70-31.4 48.2 0 94 35.4 94 116.6 0 84.2-73.4 196.8-176.8 196.8-34.6 0-62.2-10.2-84-31.2l-20.8 32.4C288 407.6 326 424 366.8 424 492 424 512 288 512 218.4c0-68-32.2-164.8-143.6-164.8-41.2 0-74.8 22-103.4 56.2-23.4 28-44.2 65-68.6 108.8l-15.8 28.4C157.4 290 143.4 315.4 126.4 337c-13 16.4-24.8 22.2-38 22.2-16 0-28.6-9.6-36.6-27.4-6.4-14.4-10-33.6-10-56.4 0-88 44.4-188.6 117.4-188.6 27.6 0 46.4 13.6 62.2 39.4l16-27.2C219 67.2 189.6 53.6 158 53.6 59 53.6 0 170 0 275c0 0 0 0 0 0 0-2.2.2-4.6.6-6.8z"/>
</svg>